<svg width="310" height="305" viewBox="0 0 310 305" fill="none" xmlns="http://www.w3.org/2000/svg">
<path d="M239.279 219.95C252.14 203.902 260.166 184.525 262.418 164.083C264.67 143.641 261.054 122.981 251.994 104.519C242.935 86.0572 228.805 70.5565 211.259 59.8303C193.712 49.1041 173.475 43.5959 152.912 43.9501C132.35 44.3043 112.314 50.5061 95.1475 61.8301C77.9809 73.1542 64.3936 89.1323 55.9751 107.895C47.5565 126.659 44.6548 147.431 47.6092 167.783C50.5636 188.135 59.2521 207.225 72.6583 222.819L76.8879 219.183C64.1722 204.392 55.9313 186.285 53.129 166.982C50.3268 147.678 53.0791 127.975 61.0641 110.179C69.049 92.382 81.9364 77.2269 98.2188 66.4861C114.501 55.7453 133.505 49.8629 153.009 49.527C172.512 49.1911 191.707 54.4155 208.35 64.5892C224.992 74.7629 238.394 89.4653 246.987 106.976C255.58 124.488 259.009 144.084 256.874 163.472C254.738 182.861 247.125 201.241 234.926 216.461L239.279 219.95Z" fill="black"/>
<path d="M65.3711 239.562L73.5742 261.359L81.7578 239.562H88.1445V268H83.2227V258.625L83.7109 246.086L75.3125 268H71.7773L63.3984 246.105L63.8867 258.625V268H58.9648V239.562H65.3711ZM99.2188 268H94.2969V239.562H99.2188V268ZM127.852 268H122.91L110.234 247.824V268H105.293V239.562H110.234L122.949 259.816V239.562H127.852V268ZM138.906 268H133.984V239.562H138.906V268ZM176.641 258.742C176.354 261.776 175.234 264.146 173.281 265.852C171.328 267.544 168.73 268.391 165.488 268.391C163.223 268.391 161.224 267.857 159.492 266.789C157.773 265.708 156.445 264.178 155.508 262.199C154.57 260.22 154.082 257.922 154.043 255.305V252.648C154.043 249.966 154.518 247.603 155.469 245.559C156.419 243.514 157.78 241.939 159.551 240.832C161.335 239.725 163.392 239.172 165.723 239.172C168.861 239.172 171.387 240.025 173.301 241.73C175.215 243.436 176.328 245.845 176.641 248.957H171.719C171.484 246.913 170.885 245.441 169.922 244.543C168.971 243.632 167.572 243.176 165.723 243.176C163.574 243.176 161.921 243.964 160.762 245.539C159.616 247.102 159.03 249.4 159.004 252.434V254.953C159.004 258.026 159.551 260.37 160.645 261.984C161.751 263.599 163.366 264.406 165.488 264.406C167.428 264.406 168.887 263.97 169.863 263.098C170.84 262.225 171.458 260.773 171.719 258.742H176.641ZM196.992 261.379H185.977L183.672 268H178.535L189.277 239.562H193.711L204.473 268H199.316L196.992 261.379ZM187.363 257.395H195.605L191.484 245.598L187.363 257.395ZM218.164 257.043H212.656V268H207.715V239.562H217.715C220.996 239.562 223.529 240.298 225.312 241.77C227.096 243.241 227.988 245.37 227.988 248.156C227.988 250.057 227.526 251.652 226.602 252.941C225.69 254.217 224.414 255.201 222.773 255.891L229.16 267.746V268H223.867L218.164 257.043ZM212.656 253.078H217.734C219.401 253.078 220.703 252.661 221.641 251.828C222.578 250.982 223.047 249.829 223.047 248.371C223.047 246.848 222.611 245.669 221.738 244.836C220.879 244.003 219.59 243.573 217.871 243.547H212.656V253.078ZM247.539 260.676C247.539 259.426 247.096 258.462 246.211 257.785C245.339 257.108 243.757 256.424 241.465 255.734C239.173 255.044 237.35 254.276 235.996 253.43C233.405 251.802 232.109 249.68 232.109 247.062C232.109 244.771 233.04 242.883 234.902 241.398C236.777 239.914 239.206 239.172 242.188 239.172C244.167 239.172 245.931 239.536 247.48 240.266C249.03 240.995 250.247 242.036 251.133 243.391C252.018 244.732 252.461 246.223 252.461 247.863H247.539C247.539 246.379 247.07 245.22 246.133 244.387C245.208 243.54 243.88 243.117 242.148 243.117C240.534 243.117 239.277 243.462 238.379 244.152C237.493 244.842 237.051 245.806 237.051 247.043C237.051 248.085 237.533 248.957 238.496 249.66C239.46 250.35 241.048 251.027 243.262 251.691C245.475 252.342 247.253 253.091 248.594 253.938C249.935 254.771 250.918 255.734 251.543 256.828C252.168 257.909 252.48 259.178 252.48 260.637C252.48 263.007 251.569 264.895 249.746 266.301C247.936 267.694 245.475 268.391 242.363 268.391C240.306 268.391 238.411 268.013 236.68 267.258C234.961 266.49 233.62 265.435 232.656 264.094C231.706 262.753 231.23 261.19 231.23 259.406H236.172C236.172 261.021 236.706 262.271 237.773 263.156C238.841 264.042 240.371 264.484 242.363 264.484C244.082 264.484 245.371 264.139 246.23 263.449C247.103 262.746 247.539 261.822 247.539 260.676Z" fill="black"/>
<path d="M116.676 165.52C115.452 165.52 114.459 166.512 114.459 167.736C114.459 170.425 112.272 172.612 109.584 172.612C106.895 172.612 104.708 170.425 104.708 167.736C104.708 165.048 106.895 162.861 109.584 162.861C110.808 162.861 111.8 161.868 111.8 160.644C111.8 159.421 110.808 158.428 109.584 158.428C104.451 158.428 100.275 162.604 100.275 167.736C100.275 172.869 104.451 177.045 109.584 177.045C114.716 177.045 118.892 172.869 118.892 167.736C118.892 166.512 117.9 165.52 116.676 165.52Z" fill="black"/>
<path d="M208.873 165.52C207.649 165.52 206.657 166.512 206.657 167.736C206.657 170.425 204.469 172.612 201.781 172.612C199.092 172.612 196.905 170.425 196.905 167.736C196.905 165.048 199.092 162.861 201.781 162.861C203.005 162.861 203.997 161.868 203.997 160.644C203.997 159.421 203.005 158.428 201.781 158.428C196.648 158.428 192.473 162.604 192.473 167.736C192.473 172.869 196.648 177.045 201.781 177.045C206.913 177.045 211.089 172.869 211.089 167.736C211.089 166.512 210.097 165.52 208.873 165.52Z" fill="black"/>
<path d="M227.784 156.064H227.636V154.201C227.636 150.141 225.874 146.298 222.861 143.642C222.802 143.359 222.687 143.083 222.511 142.831L222.232 142.429C219.853 138.999 217.607 135.759 210.946 133.473C205.461 131.591 197.29 130.456 185.03 129.914L174.546 113.288C174.529 113.261 174.511 113.234 174.493 113.207C172.767 110.718 170.164 107.783 165.314 107.177C161.778 106.734 130.27 103.092 113.338 111.374C104.703 115.598 93.0513 125.195 85.3786 146.964C85.1739 147.441 84.9915 147.931 84.8364 148.435L82.4887 156.065H81.2162C79.9923 156.065 79 157.057 79 158.281C79 159.475 79.9444 160.445 81.1264 160.493L80.0393 164.026C79.6073 165.43 79.8602 166.913 80.7328 168.094C81.6054 169.276 82.9482 169.953 84.4171 169.953H90.9553C92.0557 179.259 99.9878 186.501 109.584 186.501C119.18 186.501 127.113 179.259 128.213 169.953H183.151C184.251 179.259 192.184 186.501 201.78 186.501C211.376 186.501 219.308 179.259 220.409 169.953H225.42C226.644 169.953 227.636 168.961 227.636 167.737V160.497H227.784C229.008 160.497 230 159.505 230 158.281C230 157.057 229.008 156.064 227.784 156.064ZM179.669 129.721C178.591 129.691 177.487 129.664 176.353 129.641L169.994 116.795C170.576 116.693 170.995 116.686 170.997 116.686C171.143 116.686 171.285 116.671 171.423 116.644L179.669 129.721ZM115.286 115.355C128.101 109.087 152.417 110.029 164.764 111.575C165.993 111.728 167.028 112.086 167.981 112.719C167.279 112.923 166.525 113.216 165.797 113.638C164.786 114.223 164.403 115.493 164.921 116.539L171.367 129.56C170.265 129.546 169.172 129.535 168.089 129.527L163.088 118.154C162.109 115.928 160.013 114.36 157.615 114.061C153.92 113.6 146.545 112.936 138.667 113.666C128.871 114.573 121.25 117.321 116.017 121.831C112.444 124.912 109.456 129.873 110.539 133.499C109.385 133.728 108.261 133.966 107.176 134.215C99.7709 135.911 95.6691 137.722 93.527 138.944C100.31 125.185 108.754 118.551 115.286 115.355ZM115.61 132.592C115.304 132.556 114.862 132.468 114.789 132.252C114.413 131.145 115.832 127.843 118.911 125.189C129.716 115.877 150.848 117.684 157.067 118.46C157.924 118.567 158.677 119.133 159.031 119.938L163.242 129.514C144.088 129.542 128.141 130.573 115.61 132.592ZM109.584 182.068C101.682 182.068 95.2524 175.639 95.2524 167.737C95.2524 159.834 101.682 153.405 109.584 153.405C117.487 153.405 123.916 159.834 123.916 167.737C123.916 175.639 117.487 182.068 109.584 182.068ZM201.78 182.068C193.877 182.068 187.448 175.639 187.448 167.737C187.448 159.834 193.877 153.405 201.78 153.405C209.678 153.405 216.104 159.827 216.111 167.723C216.111 167.728 216.111 167.732 216.111 167.737C216.111 167.741 216.111 167.745 216.111 167.75C216.104 175.646 209.678 182.068 201.78 182.068ZM223.204 165.52H220.409C219.308 156.215 211.376 148.972 201.78 148.972C192.184 148.972 184.251 156.215 183.151 165.52H178.085C178.326 162.624 179.04 159.82 180.22 157.156C180.716 156.037 180.21 154.728 179.091 154.233C177.972 153.737 176.663 154.242 176.167 155.361C174.735 158.593 173.89 162.002 173.64 165.52H135.357C135.023 160.911 133.653 156.425 131.341 152.431C130.727 151.372 129.371 151.011 128.312 151.624C127.253 152.238 126.891 153.593 127.505 154.653C129.427 157.972 130.586 161.692 130.91 165.52H128.213C127.112 156.215 119.18 148.972 109.584 148.972C99.9875 148.972 92.0554 156.215 90.955 165.52H84.4171C84.3929 165.52 84.3426 165.52 84.2983 165.46C84.254 165.4 84.2687 165.352 84.2758 165.329L85.7628 160.497H88.3082C89.5322 160.497 90.5245 159.505 90.5245 158.281C90.5245 157.057 89.5322 156.064 88.3082 156.064H87.1265L88.4252 151.844C88.773 150.734 89.1315 149.656 89.4988 148.607C90.4237 146.52 92.0085 144.857 93.9756 143.953C97.3984 142.382 101.059 141.585 104.856 141.585C111.555 141.585 117.926 144.115 122.796 148.708C123.687 149.548 125.089 149.507 125.929 148.617C126.769 147.726 126.728 146.323 125.837 145.484C121.754 141.632 116.767 139.021 111.385 137.851C130.487 134.075 156.752 133.694 175.733 134.061C192.348 134.382 203.018 135.504 209.269 137.586C207.588 137.302 205.875 137.152 204.144 137.152C195.227 137.152 186.775 141.031 180.954 147.794C180.156 148.722 180.26 150.122 181.188 150.92C182.116 151.718 183.515 151.614 184.313 150.686C189.292 144.902 196.52 141.584 204.144 141.584C209.525 141.584 214.695 143.217 219.096 146.305C221.668 148.11 223.203 151.062 223.203 154.201V156.064H223.055C221.832 156.064 220.839 157.056 220.839 158.28C220.839 159.504 221.832 160.497 223.055 160.497H223.203V165.52H223.204Z" fill="black"/>
</svg>
